<?xml version="1.0" encoding="iso-8859-1"?>
<!-- Generator: Adobe Illustrator 19.0.0, SVG Export Plug-In . SVG Version: 6.00 Build 0)  -->
<svg version="1.1" id="Capa_1" xmlns="http://www.w3.org/2000/svg" xmlns:xlink="http://www.w3.org/1999/xlink" x="0px" y="0px"
	 viewBox="0 0 512 512" style="enable-background:new 0 0 512 512;" xml:space="preserve">
<circle style="fill:#F94616;" cx="256" cy="256" r="256"/>
<path style="fill:#DB2C09;" d="M512,256c0-3.518-0.091-7.015-0.231-10.498L380.147,113.88L104,400l108.263,108.263
	C226.477,510.71,241.087,512,256,512C397.385,512,512,397.385,512,256z"/>
<path style="fill:#FFFFFF;" d="M256,60c-93.888,0-170,76.112-170,170c0,47.731,19.68,90.86,51.358,121.737L104,400h152
	c93.888,0,170-76.112,170-170S349.888,60,256,60z"/>
<path style="fill:#EBEEF0;" d="M256,60c-0.215,0-0.428,0.007-0.643,0.008V400H256c93.888,0,170-76.112,170-170S349.888,60,256,60z"
	/>
<path style="fill:#1E499E;" d="M388.5,240.813v-33.626l-35.894-4.991c-2.431-10.534-6.591-20.405-12.155-29.308l21.861-28.923
	l-23.777-23.777l-28.923,21.861c-8.903-5.564-18.774-9.724-29.308-12.155L275.313,94h-33.626l-4.991,35.894
	c-10.534,2.431-20.405,6.591-29.307,12.155l-28.923-21.861l-23.777,23.777l21.861,28.923c-5.564,8.903-9.724,18.773-12.155,29.307
	l-35.893,4.991v33.626l35.893,4.991c2.431,10.534,6.591,20.404,12.155,29.307l-21.861,28.923l23.777,23.778l28.923-21.861
	c8.903,5.564,18.774,9.724,29.308,12.155l4.99,35.895h33.626l4.991-35.894c10.534-2.431,20.405-6.591,29.307-12.155l28.923,21.861
	l23.778-23.777l-21.861-28.923c5.564-8.903,9.724-18.774,12.155-29.308L388.5,240.813z M258.5,278.628
	c-30.17,0-54.628-24.458-54.628-54.628s24.458-54.628,54.628-54.628c30.17,0,54.628,24.458,54.628,54.628
	S288.67,278.628,258.5,278.628z"/>
<path style="fill:#0E387C;" d="M388.5,240.813v-33.626l-35.894-4.991c-2.431-10.534-6.591-20.405-12.155-29.308l21.861-28.923
	l-23.777-23.777l-28.923,21.861c-8.903-5.564-18.774-9.724-29.308-12.155L275.313,94h-19.955v75.469
	c1.041-0.059,2.087-0.096,3.143-0.096c30.17,0,54.628,24.458,54.628,54.628s-24.458,54.628-54.628,54.628
	c-1.056,0-2.102-0.037-3.143-0.096V354h19.956l4.991-35.894c10.534-2.431,20.405-6.591,29.307-12.155l28.923,21.861l23.778-23.777
	l-21.861-28.923c5.564-8.903,9.724-18.774,12.155-29.308L388.5,240.813z"/>
<g>
</g>
<g>
</g>
<g>
</g>
<g>
</g>
<g>
</g>
<g>
</g>
<g>
</g>
<g>
</g>
<g>
</g>
<g>
</g>
<g>
</g>
<g>
</g>
<g>
</g>
<g>
</g>
<g>
</g>
</svg>
