<?xml version="1.0" encoding="iso-8859-1"?>
<!-- Generator: Adobe Illustrator 19.0.0, SVG Export Plug-In . SVG Version: 6.00 Build 0)  -->
<svg version="1.1" id="Capa_1" xmlns="http://www.w3.org/2000/svg" xmlns:xlink="http://www.w3.org/1999/xlink" x="0px" y="0px"
	 viewBox="0 0 512 512" style="enable-background:new 0 0 512 512;" xml:space="preserve">
<circle style="fill:#64E1DC;" cx="256" cy="256" r="256"/>
<path style="fill:#00C8C8;" d="M512,256c0-26.192-3.942-51.461-11.251-75.257L402,81.993l-280,341.34l83.717,83.717
	c16.26,3.239,33.071,4.95,50.283,4.95C397.385,512,512,397.385,512,256z"/>
<rect x="235" y="81.993" style="fill:#636978;" width="167" height="341.34"/>
<rect x="317.48" y="81.993" style="fill:#555A66;" width="84.52" height="341.34"/>
<rect x="262.8" y="107.27" style="fill:#9196AA;" width="45.45" height="45.45"/>
<rect x="328.74" y="107.27" style="fill:#7E8596;" width="45.45" height="45.45"/>
<rect x="262.8" y="179.14" style="fill:#9196AA;" width="45.45" height="45.45"/>
<rect x="328.74" y="179.14" style="fill:#7E8596;" width="45.45" height="45.45"/>
<rect x="262.8" y="251" style="fill:#9196AA;" width="45.45" height="45.45"/>
<rect x="328.74" y="251" style="fill:#7E8596;" width="45.45" height="45.45"/>
<rect x="285.2" y="327.67" style="fill:#414952;" width="62.47" height="95.67"/>
<rect x="317.48" y="327.67" style="fill:#333940;" width="30.19" height="95.67"/>
<rect x="122" y="157.42" style="fill:#FFFFFF;" width="167" height="265.92"/>
<rect x="203.79" y="157.42" style="fill:#F5FAFC;" width="85.21" height="265.92"/>
<rect x="149.8" y="183.94" style="fill:#B5EFFF;" width="45.45" height="45.45"/>
<rect x="215.74" y="183.94" style="fill:#96E8FF;" width="45.45" height="45.45"/>
<rect x="149.8" y="255.8" style="fill:#B5EFFF;" width="45.45" height="45.45"/>
<rect x="215.74" y="255.8" style="fill:#96E8FF;" width="45.45" height="45.45"/>
<rect x="172.53" y="327.67" style="fill:#DCE1EB;" width="62.47" height="95.67"/>
<rect x="203.79" y="327.67" style="fill:#CDD2E1;" width="31.21" height="95.67"/>
<g>
</g>
<g>
</g>
<g>
</g>
<g>
</g>
<g>
</g>
<g>
</g>
<g>
</g>
<g>
</g>
<g>
</g>
<g>
</g>
<g>
</g>
<g>
</g>
<g>
</g>
<g>
</g>
<g>
</g>
</svg>
