<?xml version="1.0" encoding="iso-8859-1"?>
<!-- Generator: Adobe Illustrator 19.0.0, SVG Export Plug-In . SVG Version: 6.00 Build 0)  -->
<svg version="1.1" id="Capa_1" xmlns="http://www.w3.org/2000/svg" xmlns:xlink="http://www.w3.org/1999/xlink" x="0px" y="0px"
	 viewBox="0 0 512 512" style="enable-background:new 0 0 512 512;" xml:space="preserve">
<g>
	<circle style="fill:#1F66CC;" cx="256" cy="256" r="256"/>
	<circle style="fill:#1F66CC;" cx="256" cy="256" r="256"/>
</g>
<path style="fill:#154797;" d="M512,256c0-20.994-2.546-41.39-7.312-60.916l-86.969-86.969L312.5,282.69L70.065,317.485
	l35.364,35.364l-23.525,6.756l151.38,151.38C240.771,511.644,248.343,512,256,512C397.385,512,512,397.385,512,256z"/>
<path style="fill:#DCE6D3;" d="M321.124,181.651l96.595-73.537v176.052c0,89.315-72.404,161.719-161.719,161.719
	S94.281,373.481,94.281,284.167V108.115l96.595,73.537h130.248V181.651z"/>
<path style="fill:#98B4B6;" d="M321.124,181.651h-65.171v264.233c0.016,0,0.032,0,0.048,0c89.315,0,161.719-72.404,161.719-161.719
	v-176.05L321.124,181.651z"/>
<circle style="fill:#666666;" cx="165.32" cy="277.31" r="19.631"/>
<circle style="fill:#4D4D4D;" cx="346.68" cy="277.31" r="19.631"/>
<path style="fill:#666666;" d="M303.957,364.598c0,10.465-8.514,18.979-18.979,18.979S266,375.063,266,364.598v-44.472
	l28.794-28.793h-77.588L246,320.126v44.472c0,10.465-8.514,18.979-18.979,18.979s-18.979-8.514-18.979-18.979h-20
	c0,21.493,17.486,38.979,38.979,38.979c11.494,0,21.838-5.003,28.979-12.943c7.141,7.94,17.485,12.943,28.979,12.943
	c21.493,0,38.979-17.486,38.979-38.979L303.957,364.598L303.957,364.598z"/>
<path style="fill:#4D4D4D;" d="M303.957,364.598c0,10.465-8.514,18.979-18.979,18.979S266,375.063,266,364.598v-44.472
	l28.794-28.793h-38.841v99.35c0.015-0.017,0.032-0.033,0.048-0.05c7.141,7.94,17.485,12.943,28.979,12.943
	c21.493,0,38.979-17.486,38.979-38.979h-20.002V364.598z"/>
<g>
	
		<rect x="70.628" y="302.496" transform="matrix(-0.9972 -0.0743 0.0743 -0.9972 252.1108 634.3697)" style="fill:#FFFFFF;" width="134.455" height="19.999"/>
	
		<rect x="133.192" y="285.387" transform="matrix(-0.0405 -0.9992 0.9992 -0.0405 -197.8573 504.2671)" style="fill:#FFFFFF;" width="20" height="123.493"/>
</g>
<g>
	
		<rect x="364.155" y="245.264" transform="matrix(-0.0743 -0.9972 0.9972 -0.0743 90.327 708.8309)" style="fill:#E0E0E0;" width="19.999" height="134.455"/>
	
		<rect x="307.053" y="337.14" transform="matrix(-0.9992 -0.0405 0.0405 -0.9992 723.2377 708.9311)" style="fill:#E0E0E0;" width="123.493" height="20"/>
</g>
<g>
</g>
<g>
</g>
<g>
</g>
<g>
</g>
<g>
</g>
<g>
</g>
<g>
</g>
<g>
</g>
<g>
</g>
<g>
</g>
<g>
</g>
<g>
</g>
<g>
</g>
<g>
</g>
<g>
</g>
</svg>
