<?xml version="1.0" encoding="iso-8859-1"?>
<!-- Generator: Adobe Illustrator 19.0.0, SVG Export Plug-In . SVG Version: 6.00 Build 0)  -->
<svg version="1.1" id="Capa_1" xmlns="http://www.w3.org/2000/svg" xmlns:xlink="http://www.w3.org/1999/xlink" x="0px" y="0px"
	 viewBox="0 0 512 512" style="enable-background:new 0 0 512 512;" xml:space="preserve">
<circle style="fill:#963B11;" cx="256" cy="256" r="256"/>
<path style="fill:#83360B;" d="M512,256c0-0.288-0.01-0.574-0.011-0.862L400.728,143.877l-15.959,25.283l-72.995-72.995
	L120.71,243.796l118.72,118.72L161.25,426l85.828,85.828C250.042,511.93,253.012,512,256,512C397.385,512,512,397.385,512,256z"/>
<path style="fill:#FFFFFF;" d="M416.167,188.833c0-40.409-32.758-73.167-73.167-73.167c-6.358,0-12.525,0.814-18.406,2.338
	C314.243,90.168,287.441,70.333,256,70.333s-58.243,19.835-68.594,47.671c-5.881-1.524-12.049-2.338-18.406-2.338
	c-40.409,0-73.167,32.758-73.167,73.167c0,37.79,28.652,68.883,65.417,72.755V409h189.5V261.588
	C387.515,257.716,416.167,226.624,416.167,188.833z"/>
<path style="fill:#F2F6FC;" d="M343,115.667c-6.358,0-12.525,0.814-18.406,2.338C314.243,90.168,287.441,70.333,256,70.333
	c-0.144,0-0.285,0.008-0.429,0.008V409h95.179V261.588c36.765-3.872,65.417-34.964,65.417-72.755
	C416.167,148.424,383.409,115.667,343,115.667z"/>
<rect x="161.25" y="362" style="fill:#E9EDF5;" width="189.5" height="64"/>
<rect x="255.57" y="362" style="fill:#CDD2E1;" width="95.18" height="64"/>
<g>
</g>
<g>
</g>
<g>
</g>
<g>
</g>
<g>
</g>
<g>
</g>
<g>
</g>
<g>
</g>
<g>
</g>
<g>
</g>
<g>
</g>
<g>
</g>
<g>
</g>
<g>
</g>
<g>
</g>
</svg>
