<?xml version="1.0" encoding="iso-8859-1"?>
<!-- Generator: Adobe Illustrator 19.0.0, SVG Export Plug-In . SVG Version: 6.00 Build 0)  -->
<svg version="1.1" id="Capa_1" xmlns="http://www.w3.org/2000/svg" xmlns:xlink="http://www.w3.org/1999/xlink" x="0px" y="0px"
	 viewBox="0 0 512 512" style="enable-background:new 0 0 512 512;" xml:space="preserve">
<circle style="fill:#00BAFF;" cx="256" cy="256" r="256"/>
<path style="fill:#008CC3;" d="M511.99,256.752l-86.727-86.727l-11.417,15.098l-85.76-85.76L91.131,301.508l180.415,180.415
	l2.917,29.409C406.981,501.886,511.602,391.585,511.99,256.752z"/>
<path style="fill:#FFFFFF;" d="M352.5,136.908c-1.237,0-2.467,0.031-3.693,0.077C337.283,96.588,300.096,67.011,256,67.011
	s-81.283,29.577-92.807,69.974c-1.226-0.046-2.456-0.077-3.693-0.077c-53.296,0-96.5,43.204-96.5,96.5
	c0,53.295,43.204,96.5,96.5,96.5c10.906,0,21.388-1.811,31.164-5.146c17.188,15.823,40.132,25.489,65.336,25.489
	s48.147-9.666,65.336-25.489c9.777,3.334,20.259,5.146,31.164,5.146c53.296,0,96.5-43.205,96.5-96.5S405.796,136.908,352.5,136.908z
	"/>
<path style="fill:#E0E0E0;" d="M352.5,136.908c-1.237,0-2.467,0.031-3.693,0.077C337.283,96.588,300.096,67.011,256,67.011
	c-0.112,0-0.222,0.007-0.333,0.007v283.226c0.112,0,0.222,0.008,0.333,0.008c25.204,0,48.147-9.666,65.336-25.489
	c9.777,3.334,20.259,5.146,31.164,5.146c53.296,0,96.5-43.205,96.5-96.5S405.796,136.908,352.5,136.908z"/>
<path style="fill:#FFB344;" d="M285.192,322.118c0,0,3.374-30.542-29.525-63.441c-32.899,32.899-28.859,63.441-28.859,63.441
	c-34.289-22.242-94.874,3.936-94.874,3.936s105.068,39.158,105.531,70.203c0.34,22.81,0.181,84.141,0.072,115.074
	C243.636,511.766,249.79,512,256,512c6.21,0,12.364-0.234,18.463-0.668c-0.109-30.934-0.269-92.264,0.072-115.074
	c0.463-31.046,105.531-70.203,105.531-70.203S319.481,299.877,285.192,322.118z"/>
<path style="fill:#FF9451;" d="M285.192,322.118c0,0,3.374-30.542-29.525-63.441c-0.115,0.115,0.114-0.115,0,0v253.319
	c0.111,0,0.222,0.003,0.333,0.003c6.21,0,12.364-0.234,18.463-0.668c-0.109-30.934-0.269-92.264,0.072-115.074
	c0.463-31.046,105.531-70.203,105.531-70.203S319.481,299.877,285.192,322.118z"/>
<g>
</g>
<g>
</g>
<g>
</g>
<g>
</g>
<g>
</g>
<g>
</g>
<g>
</g>
<g>
</g>
<g>
</g>
<g>
</g>
<g>
</g>
<g>
</g>
<g>
</g>
<g>
</g>
<g>
</g>
</svg>
