<?xml version="1.0" encoding="iso-8859-1"?>
<!-- Generator: Adobe Illustrator 19.0.0, SVG Export Plug-In . SVG Version: 6.00 Build 0)  -->
<svg version="1.1" id="Capa_1" xmlns="http://www.w3.org/2000/svg" xmlns:xlink="http://www.w3.org/1999/xlink" x="0px" y="0px"
	 viewBox="0 0 512 512" style="enable-background:new 0 0 512 512;" xml:space="preserve">
<circle style="fill:#FFDA00;" cx="256" cy="256" r="256"/>
<path style="fill:#FFB600;" d="M187.442,372.485L143,377.015l134.113,134.113C408.619,500.391,512,390.275,512,256
	c0-18.403-1.958-36.346-5.648-53.648L377,73l-113.983,57.017L206,73v4l-67,26l66.178,66.178l-3.153,2.773l42.288,42.288h-30.407
	L187.442,372.485z"/>
<path style="fill:#495959;" d="M296.72,177.365h-81.44c-10.464,0-18.947-8.483-18.947-18.947l0,0
	c0-10.464,8.483-18.947,18.947-18.947h81.44c10.464,0,18.947,8.483,18.947,18.947l0,0
	C315.667,168.882,307.184,177.365,296.72,177.365z"/>
<path style="fill:#3F4A4A;" d="M296.72,139.472h-41.149v37.893h41.149c10.464,0,18.947-8.483,18.947-18.947l0,0
	C315.667,147.954,307.184,139.472,296.72,139.472z"/>
<path style="fill:#495959;" d="M256.81,459.353h-1.619c-16.305,0-29.524-13.218-29.524-29.524V270.675
	c0-16.305,13.218-29.524,29.524-29.524h1.619c16.305,0,29.524,13.218,29.524,29.524v159.154
	C286.333,446.135,273.115,459.353,256.81,459.353z"/>
<path style="fill:#3F4A4A;" d="M256.81,241.152h-1.238v218.201h1.238c16.306,0,29.524-13.218,29.524-29.524V270.675
	C286.333,254.37,273.115,241.152,256.81,241.152z"/>
<path style="fill:#008FF9;" d="M336.833,344.015v-72.233c0-37.287-27.648-68.498-64.333-75.818v-94.386h-33v94.386
	c-36.685,7.319-64.333,38.531-64.333,75.818v72.233H143v33h65.167V271.782c0-24.507,21.458-44.445,47.833-44.445
	s47.833,19.938,47.833,44.445v105.233h66.5v-33H336.833z"/>
<g>
	<path style="fill:#005FF7;" d="M336.833,344.015v-72.233c0-37.287-27.648-68.498-64.333-75.818v-94.386h-16.929v125.769
		c0.143-0.001,0.285-0.01,0.429-0.01c26.375,0,47.833,19.938,47.833,44.445v105.233h66.5v-33H336.833z"/>
	<path style="fill:#005FF7;" d="M287.333,126.683h-62.667c-20.562,0-37.768-9.648-45.001-23.683H139V73h67v15
		c0,2.981,7.27,8.683,18.667,8.683h62.667C298.73,96.683,306,90.981,306,88V73h71v30h-44.665
		C325.102,117.035,307.896,126.683,287.333,126.683z"/>
</g>
<path style="fill:#27488F;" d="M306,73v15c0,2.981-7.27,8.683-18.667,8.683h-31.762v30h31.762c20.563,0,37.769-9.648,45.002-23.683
	H377V73H306z"/>
<g>
</g>
<g>
</g>
<g>
</g>
<g>
</g>
<g>
</g>
<g>
</g>
<g>
</g>
<g>
</g>
<g>
</g>
<g>
</g>
<g>
</g>
<g>
</g>
<g>
</g>
<g>
</g>
<g>
</g>
</svg>
