<?xml version="1.0" encoding="iso-8859-1"?>
<!-- Generator: Adobe Illustrator 19.0.0, SVG Export Plug-In . SVG Version: 6.00 Build 0)  -->
<svg version="1.1" id="Capa_1" xmlns="http://www.w3.org/2000/svg" xmlns:xlink="http://www.w3.org/1999/xlink" x="0px" y="0px"
	 viewBox="0 0 512 512" style="enable-background:new 0 0 512 512;" xml:space="preserve">
<circle style="fill:#F42727;" cx="256" cy="256" r="256"/>
<path style="fill:#D30F0F;" d="M510.991,278.657L370.999,138.854l-0.339,0.306L308.5,77L74.894,365.807L218.32,509.233
	C230.618,511.047,243.197,512,256,512C389.748,512,499.52,409.427,510.991,278.657z"/>
<polygon style="fill:#FFB600;" points="318.5,123 193.5,123 203.5,77 308.5,77 "/>
<polygon style="fill:#FF9B32;" points="308.5,77 255.571,77 255.571,123 318.5,123 "/>
<path style="fill:#495959;" d="M121.651,374.661H93.239c-12.949,0-23.446-10.497-23.446-23.446v-52.024
	c0-12.949,10.497-23.446,23.446-23.446h28.412c12.949,0,23.446,10.497,23.446,23.446v52.024
	C145.096,364.164,134.599,374.661,121.651,374.661z"/>
<path style="fill:#3F4A4A;" d="M418.761,375.161h-28.412c-12.949,0-23.446-10.497-23.446-23.446v-52.024
	c0-12.949,10.497-23.446,23.446-23.446h28.412c12.949,0,23.446,10.497,23.446,23.446v52.024
	C442.207,364.664,431.71,375.161,418.761,375.161z"/>
<path style="fill:#FFFFFF;" d="M409.412,223.035H102.588l35.169-64.079c10.645-19.395,31.012-31.45,53.136-31.45h130.214
	c22.125,0,42.491,12.055,53.136,31.45L409.412,223.035z"/>
<path style="fill:#F0F0F0;" d="M374.243,158.956c-10.645-19.395-31.012-31.45-53.136-31.45h-65.536v95.529h153.841L374.243,158.956z
	"/>
<path style="fill:#FFDA00;" d="M425.463,232.535H86.537l42.892-78.149c12.315-22.439,35.867-36.379,61.464-36.379h130.214
	c25.598,0,49.149,13.94,61.464,36.38L425.463,232.535z M118.639,213.535h274.723l-27.446-50.008
	c-8.978-16.359-26.147-26.521-44.808-26.521H190.893c-18.661,0-35.83,10.162-44.808,26.521L118.639,213.535z"/>
<path style="fill:#FFB600;" d="M382.571,154.385c-12.315-22.44-35.867-36.38-61.464-36.38h-65.536v19h65.536
	c18.661,0,35.83,10.162,44.808,26.521l27.446,50.008h-137.79v19h169.891L382.571,154.385z"/>
<path style="fill:#FFDA00;" d="M401.5,347.701h-291c-23.196,0-42-18.804-42-42v-51.52c0-23.196,18.804-42,42-42h291
	c23.196,0,42,18.804,42,42v51.52C443.5,328.897,424.696,347.701,401.5,347.701z"/>
<path style="fill:#FFB600;" d="M401.5,212.182H255.571v135.52H401.5c23.196,0,42-18.804,42-42v-51.52
	C443.5,230.986,424.696,212.182,401.5,212.182z"/>
<path style="fill:#495959;" d="M321.875,307.201h-131.75c-18.709,0-33.875-15.166-33.875-33.875v-12.125h199.5v12.125
	C355.75,292.035,340.584,307.201,321.875,307.201z"/>
<path style="fill:#3F4A4A;" d="M255.571,261.201v46h66.304c18.709,0,33.875-15.166,33.875-33.875v-12.125H255.571z"/>
<path style="fill:#008FF9;" d="M400.625,334.701h-289.25c-12.703,0-23-10.297-23-23l0,0h335.25l0,0
	C423.625,324.404,413.328,334.701,400.625,334.701z"/>
<path style="fill:#005FF7;" d="M255.571,311.701v23h145.054c12.703,0,23-10.297,23-23H255.571z"/>
<path style="fill:#495959;" d="M332.75,334.701h-153.5c-12.703,0-23-10.297-23-23l0,0h199.5l0,0
	C355.75,324.404,345.453,334.701,332.75,334.701z"/>
<path style="fill:#3F4A4A;" d="M255.571,311.701v23h77.179c12.703,0,23-10.297,23-23H255.571z"/>
<path style="fill:#008FF9;" d="M104,291.201h41.096v-12.424c0-10.699-6.267-20.407-16.018-24.811l-16.207-7.32
	C98.397,240.108,82,250.694,82,266.577v2.625C82,281.352,91.85,291.201,104,291.201z"/>
<path style="fill:#005FF7;" d="M408,291.201h-41.096v-12.424c0-10.699,6.267-20.407,16.018-24.811l16.207-7.32
	c14.475-6.538,30.872,4.048,30.872,19.931v2.625C430,281.352,420.15,291.201,408,291.201z"/>
<g>
</g>
<g>
</g>
<g>
</g>
<g>
</g>
<g>
</g>
<g>
</g>
<g>
</g>
<g>
</g>
<g>
</g>
<g>
</g>
<g>
</g>
<g>
</g>
<g>
</g>
<g>
</g>
<g>
</g>
</svg>
