<?xml version="1.0" encoding="iso-8859-1"?>
<!-- Generator: Adobe Illustrator 19.0.0, SVG Export Plug-In . SVG Version: 6.00 Build 0)  -->
<svg version="1.1" id="Capa_1" xmlns="http://www.w3.org/2000/svg" xmlns:xlink="http://www.w3.org/1999/xlink" x="0px" y="0px"
	 viewBox="0 0 512 512" style="enable-background:new 0 0 512 512;" xml:space="preserve">
<circle style="fill:#64E1DC;" cx="256" cy="256" r="256"/>
<path style="fill:#00C8C8;" d="M512,256c0-0.634-0.02-1.264-0.024-1.897l-65.291-65.291l-4.405,8.618L407.851,163L304.065,292.879
	L174.186,163L64,323.188l188.772,188.771c1.076,0.014,2.149,0.041,3.228,0.041C397.385,512,512,397.385,512,256z"/>
<rect x="122.67" y="218.5" style="fill:#515262;" width="266.67" height="75"/>
<rect x="122.67" y="256.5" style="fill:#464655;" width="266.67" height="37"/>
<rect x="397.37" y="188.81" style="fill:#F84F24;" width="49.31" height="134.38"/>
<rect x="397.37" y="256.5" style="fill:#DB2B0E;" width="49.31" height="66.69"/>
<rect x="336.5" y="163" style="fill:#FFE45C;" width="71.35" height="186"/>
<rect x="336.5" y="256.5" style="fill:#FFBC36;" width="71.35" height="92.5"/>
<rect x="64" y="188.81" style="fill:#F84F24;" width="49.31" height="134.38"/>
<rect x="64" y="256.5" style="fill:#DB2B0E;" width="49.31" height="66.69"/>
<rect x="102.83" y="163" style="fill:#FFE45C;" width="71.35" height="186"/>
<rect x="102.83" y="256.5" style="fill:#FFBC36;" width="71.35" height="92.5"/>
<g>
</g>
<g>
</g>
<g>
</g>
<g>
</g>
<g>
</g>
<g>
</g>
<g>
</g>
<g>
</g>
<g>
</g>
<g>
</g>
<g>
</g>
<g>
</g>
<g>
</g>
<g>
</g>
<g>
</g>
</svg>
