<?xml version="1.0" encoding="iso-8859-1"?>
<!-- Generator: Adobe Illustrator 19.0.0, SVG Export Plug-In . SVG Version: 6.00 Build 0)  -->
<svg version="1.1" id="Layer_1" xmlns="http://www.w3.org/2000/svg" xmlns:xlink="http://www.w3.org/1999/xlink" x="0px" y="0px"
	 viewBox="0 0 297 297" style="enable-background:new 0 0 297 297;" xml:space="preserve">
<g>
	<g>
		<g>
			<g>
				<circle style="fill:#C63C22;" cx="148.5" cy="148.5" r="148.5"/>
			</g>
		</g>
	</g>
	<path style="fill:#A0231D;" d="M247.954,111.954c-3.253,1.94-6.653,3.546-10.454,3.546c-29,4-64,0-81,26c-13,22-26,42-37,65
		c-4,11-6,22-7,34c0,2.485-0.272,4.009-2,7l46.581,49.247c74.032-4.219,133.543-62.661,139.434-136.233L247.954,111.954z"/>
	<g>
		<rect x="143.5" y="49.5" style="fill:#E8D579;" width="10" height="49.5"/>
	</g>
	<g>
		<rect x="110.5" y="49.5" style="fill:#E8D579;" width="10" height="49.5"/>
	</g>
	<g>
		<rect x="176.5" y="49.5" style="fill:#E8D579;" width="10" height="49.5"/>
	</g>
	<g>
		<rect x="143.5" y="198" style="fill:#E8D579;" width="10" height="49.5"/>
	</g>
	<g>
		<rect x="110.5" y="198" style="fill:#E8D579;" width="10" height="49.5"/>
	</g>
	<g>
		<rect x="176.5" y="198" style="fill:#E8D579;" width="10" height="49.5"/>
	</g>
	<g>
		<rect x="198" y="143.5" style="fill:#E8D579;" width="49.5" height="10"/>
	</g>
	<g>
		<rect x="198" y="110.5" style="fill:#E8D579;" width="49.5" height="10"/>
	</g>
	<g>
		<rect x="198" y="176.5" style="fill:#E8D579;" width="49.5" height="10"/>
	</g>
	<g>
		<rect x="49.5" y="143.5" style="fill:#E8D579;" width="49.5" height="10"/>
	</g>
	<g>
		<rect x="49.5" y="110.5" style="fill:#E8D579;" width="49.5" height="10"/>
	</g>
	<g>
		<rect x="49.5" y="176.5" style="fill:#E8D579;" width="49.5" height="10"/>
	</g>
	<g>
		<path style="fill:#E3E5E4;" d="M98.833,214.5h99.333c9.021,0,16.333-7.313,16.333-16.333V98.834
			c0-9.021-7.313-16.334-16.333-16.334H98.833c-9.021,0-16.334,7.313-16.334,16.334v99.333C82.5,207.187,89.813,214.5,98.833,214.5z
			"/>
	</g>
	<g>
		<path style="fill:#FFA800;" d="M107.313,198h82.375c4.591,0,8.313-3.722,8.313-8.313v-82.375c0-4.591-3.722-8.313-8.313-8.313
			h-82.375c-4.591,0-8.313,3.722-8.313,8.313v82.375C99,194.278,102.722,198,107.313,198z"/>
	</g>
</g>
<g>
</g>
<g>
</g>
<g>
</g>
<g>
</g>
<g>
</g>
<g>
</g>
<g>
</g>
<g>
</g>
<g>
</g>
<g>
</g>
<g>
</g>
<g>
</g>
<g>
</g>
<g>
</g>
<g>
</g>
</svg>
