<?xml version="1.0" encoding="iso-8859-1"?>
<!-- Generator: Adobe Illustrator 19.0.0, SVG Export Plug-In . SVG Version: 6.00 Build 0)  -->
<svg version="1.1" id="Layer_1" xmlns="http://www.w3.org/2000/svg" xmlns:xlink="http://www.w3.org/1999/xlink" x="0px" y="0px"
	 viewBox="0 0 512 512" style="enable-background:new 0 0 512 512;" xml:space="preserve">
<circle style="fill:#FC6F58;" cx="256" cy="256" r="256"/>
<path style="fill:#F1543F;" d="M509.643,290.752L394.738,175.847L192.215,293.828l-73.487,43.813l172.004,172.004
	C404.321,494.235,494.225,404.337,509.643,290.752z"/>
<path style="fill:#324A5E;" d="M113.778,326.68V185.32c0-8.092,6.561-14.653,14.653-14.653h255.138
	c8.092,0,14.653,6.561,14.653,14.653v141.36c0,8.092-6.561,14.653-14.653,14.653H128.431
	C120.337,341.333,113.778,334.772,113.778,326.68z"/>
<path style="fill:#2B3B4E;" d="M383.569,170.667H268.641v170.667h114.928c8.092,0,14.653-6.561,14.653-14.653V185.32
	C398.222,177.228,391.661,170.667,383.569,170.667z"/>
<rect x="156.013" y="178.424" style="fill:#405C6B;" width="227.556" height="155.152"/>
<rect x="268.636" y="178.424" style="fill:#324A5E;" width="114.933" height="155.152"/>
<circle style="fill:#3F596B;" cx="135.327" cy="256" r="11.205"/>
<path style="fill:#FFFFFF;" d="M269.184,218.172c-27.998,0-52.426,15.22-65.508,37.828c13.083,22.607,37.51,37.828,65.508,37.828
	s52.426-15.22,65.508-37.828C321.61,233.393,297.182,218.172,269.184,218.172z"/>
<path style="fill:#E6F3FF;" d="M269.184,218.172c-0.183,0-0.36,0.017-0.543,0.019v75.617c0.183,0.002,0.36,0.019,0.543,0.019
	c27.998,0,52.426-15.22,65.508-37.828C321.61,233.393,297.182,218.172,269.184,218.172z"/>
<circle style="fill:#B5F1F4;" cx="269.188" cy="256" r="31.323"/>
<path style="fill:#84DBFF;" d="M269.184,224.67c-0.183,0-0.36,0.024-0.543,0.028v62.605c0.183,0.003,0.359,0.028,0.543,0.028
	c17.303,0,31.33-14.027,31.33-31.33C300.515,238.697,286.489,224.67,269.184,224.67z"/>
<circle style="fill:#324A5E;" cx="269.188" cy="256" r="13.291"/>
<path style="fill:#2B3B4E;" d="M269.184,242.709c-0.183,0-0.36,0.021-0.543,0.028v26.529c0.181,0.007,0.359,0.028,0.543,0.028
	c7.34,0,13.291-5.951,13.291-13.291C282.477,248.66,276.527,242.709,269.184,242.709z"/>
<g>
</g>
<g>
</g>
<g>
</g>
<g>
</g>
<g>
</g>
<g>
</g>
<g>
</g>
<g>
</g>
<g>
</g>
<g>
</g>
<g>
</g>
<g>
</g>
<g>
</g>
<g>
</g>
<g>
</g>
</svg>
