<?xml version="1.0" encoding="iso-8859-1"?>
<!-- Generator: Adobe Illustrator 19.0.0, SVG Export Plug-In . SVG Version: 6.00 Build 0)  -->
<svg version="1.1" id="Capa_1" xmlns="http://www.w3.org/2000/svg" xmlns:xlink="http://www.w3.org/1999/xlink" x="0px" y="0px"
	 viewBox="0 0 512 512" style="enable-background:new 0 0 512 512;" xml:space="preserve">
<circle style="fill:#FFE45C;" cx="256" cy="256" r="256"/>
<path style="fill:#FFBC36;" d="M512,256c0-10.445-0.641-20.739-1.857-30.857L426,141L79.887,330.905L64.773,396l98.786,98.786
	C192.234,505.895,223.403,512,256,512C397.385,512,512,397.385,512,256z"/>
<rect x="64.773" y="281" style="fill:#78938C;" width="30.23" height="115"/>
<rect x="417" y="281" style="fill:#425E61;" width="30.23" height="115"/>
<rect x="86" y="141" style="fill:#78938C;" width="340" height="115"/>
<rect x="255.57" y="141" style="fill:#425E61;" width="170.43" height="115"/>
<rect x="103" y="206" style="fill:#F0F0F0;" width="133.5" height="62"/>
<rect x="275.5" y="206" style="fill:#D7DEED;" width="133.5" height="62"/>
<rect x="64.774" y="241.67" style="fill:#425E61;" width="382.45" height="115"/>
<rect x="255.57" y="241.67" style="fill:#354849;" width="191.66" height="115"/>
<g>
</g>
<g>
</g>
<g>
</g>
<g>
</g>
<g>
</g>
<g>
</g>
<g>
</g>
<g>
</g>
<g>
</g>
<g>
</g>
<g>
</g>
<g>
</g>
<g>
</g>
<g>
</g>
<g>
</g>
</svg>
