<?xml version="1.0" encoding="iso-8859-1"?>
<!-- Generator: Adobe Illustrator 19.0.0, SVG Export Plug-In . SVG Version: 6.00 Build 0)  -->
<svg version="1.1" id="Capa_1" xmlns="http://www.w3.org/2000/svg" xmlns:xlink="http://www.w3.org/1999/xlink" x="0px" y="0px"
	 viewBox="0 0 512 512" style="enable-background:new 0 0 512 512;" xml:space="preserve">
<circle style="fill:#FF127F;" cx="256" cy="256" r="256"/>
<path style="fill:#B10853;" d="M512,256c0-18.626-2.008-36.78-5.785-54.276L396.333,91.842H123.667v54.408h-15.021
	c-7.41,0-13.417,6.007-13.417,13.417l0,0c0,4.427,2.147,8.346,5.455,10.785l22.982,22.631v48.5h-15.021
	c-7.41,0-13.417,6.007-13.417,13.417c0,3.732,1.526,7.103,3.986,9.531l24.451,23.595v48.791h-15.021
	c-7.41,0-13.417,6.007-13.417,13.417l0,0c0,4.031,1.78,7.64,4.595,10.095l23.842,23.071v34.658l90.405,90.405
	C227.717,510.811,241.718,512,256,512C397.385,512,512,397.385,512,256z"/>
<rect x="123.67" y="91.84" style="fill:#00989D;" width="272.67" height="326.31"/>
<rect x="129.58" y="102.58" style="fill:#FFF5CB;" width="258.08" height="304.83"/>
<rect x="123.67" y="91.84" style="fill:#54FBFF;" width="248.33" height="326.31"/>
<rect x="256.93" y="91.84" style="fill:#00D9E0;" width="115.07" height="326.32"/>
<rect x="178" y="134.25" style="fill:#FFFFFF;" width="157.5" height="115.5"/>
<rect x="256.93" y="134.25" style="fill:#FFF5CB;" width="78.57" height="115.5"/>
<rect x="200.98" y="165.83" style="fill:#FDC000;" width="111.54" height="10.996"/>
<rect x="256.93" y="165.83" style="fill:#FF8900;" width="55.59" height="11"/>
<rect x="200.98" y="207.17" style="fill:#FDC000;" width="111.54" height="10.996"/>
<rect x="256.93" y="207.17" style="fill:#FF8900;" width="55.59" height="11"/>
<g>
	<path style="fill:#FFFFFF;" d="M138.687,173.083h-30.042c-7.41,0-13.417-6.007-13.417-13.417l0,0
		c0-7.41,6.007-13.417,13.417-13.417h30.042c7.41,0,13.417,6.007,13.417,13.417l0,0
		C152.104,167.077,146.097,173.083,138.687,173.083z"/>
	<path style="fill:#FFFFFF;" d="M138.687,268.417h-30.042c-7.41,0-13.417-6.007-13.417-13.417l0,0
		c0-7.41,6.007-13.417,13.417-13.417h30.042c7.41,0,13.417,6.007,13.417,13.417l0,0C152.104,262.41,146.097,268.417,138.687,268.417
		z"/>
	<path style="fill:#FFFFFF;" d="M138.687,363.75h-30.042c-7.41,0-13.417-6.007-13.417-13.417l0,0c0-7.41,6.007-13.417,13.417-13.417
		h30.042c7.41,0,13.417,6.007,13.417,13.417l0,0C152.104,357.743,146.097,363.75,138.687,363.75z"/>
</g>
<g>
</g>
<g>
</g>
<g>
</g>
<g>
</g>
<g>
</g>
<g>
</g>
<g>
</g>
<g>
</g>
<g>
</g>
<g>
</g>
<g>
</g>
<g>
</g>
<g>
</g>
<g>
</g>
<g>
</g>
</svg>
